<svg xmlns="http://www.w3.org/2000/svg" width="8" height="10" viewBox="0 0 8 10">
  <path d="M6.13883467,4.92466158 C5.28760309,5.22252198 5.07041667,5.45101947 5.07041667,6.259375 C5.07041667,8.26734167 5.4295884,10.2763202 6.14884311,12.2878473 L5.48657355,12.5246527 C4.74055049,10.4382631 4.36708333,8.34932499 4.36708333,6.259375 C4.36708333,5.10449524 4.80147929,4.64747593 5.90653729,4.26079736 C7.07083951,3.85338822 7.27423441,3.7652966 7.79673315,3.34976228 L8.03001777,3.16423501 L8.25126838,3.36396045 C8.46007601,3.55245348 8.68790343,3.70558085 8.94515887,3.83670777 C9.23418991,3.98403117 9.26138868,3.99403627 10.039535,4.25995761 C11.2023184,4.65732362 11.6641667,5.10724627 11.6641667,6.259375 C11.6641667,8.34932499 11.2906995,10.4382631 10.5446764,12.5246527 L9.88240689,12.2878473 C10.6016616,10.2763202 10.9608333,8.26734167 10.9608333,6.259375 C10.9608333,5.46923428 10.721813,5.23638584 9.81209419,4.92550133 C9.76037322,4.90782636 9.67973049,4.88066826 9.54005296,4.83352989 C9.42742592,4.79526553 9.33724025,4.76368259 9.24846157,4.73102524 C9.01836117,4.64638252 8.81844858,4.56155159 8.62575801,4.46333435 C8.40483719,4.35072773 8.19975399,4.22320786 8.00724962,4.07539208 C7.54361221,4.41797785 7.21777212,4.54712303 6.13883467,4.92466158 Z" transform="translate(-4 -3)"/>
</svg>
