<svg xmlns="http://www.w3.org/2000/svg" class="icon" width="96" height="96" viewBox="-12 -19 72 72">
    <g stroke-width="0" fill="#c13a3a" transform="translate(0 24)">
        <!-- Petals rotate from left to right: petal-1 ~ petal-5 -->
        <path d="M 0, 24 A 24 24 0 0 0 24 0 A 24 24 0 0 0 0 24" transform="rotate(90 24 0)" class="petal-2" />
        <path d="M 0, 24 A 24 24 0 0 0 24 0 A 24 24 0 0 0 0 24" transform="rotate(180 24 0)" class="petal-4" />
        <path d="M 0, 24 A 24 24 0 0 0 24 0 A 24 24 0 0 0 0 24" transform="rotate(45 24 0)" class="petal-1" />
        <path d="M 0, 24 A 24 24 0 0 0 24 0 A 24 24 0 0 0 0 24" transform="rotate(225 24 0)" class="petal-5" />
        <path d="M 0, 24 A 24 24 0 0 0 24 0 A 24 24 0 0 0 0 24" transform="rotate(135 24 0)" class="petal-3" />
    </g>
</svg>