<svg xmlns="http://www.w3.org/2000/svg" class="icon" width="96" height="96" viewBox="-12 -19 72 72">
    <g stroke-width="0" fill="#c13a3a" transform="translate(0 24)" opacity="0">
        <animate attributeType="CSS" attributeName="opacity" calcMode="spline" keySplines="0.0 0.0 0.2 1" values="0; 1" dur="500ms" fill="freeze" />
        <!-- Petals rotate from left to right: petal-1 ~ petal-5 -->
        <path d="M 0, 24 A 24 24 0 0 0 24 0 A 24 24 0 0 0 0 24" transform="rotate(135 24 0)" class="petal-2">
            <animateTransform attributeName="transform" attributeType="XML" type="rotate" calcMode="spline" keySplines="0.0 0.0 0.2 1" values="135 24 0; 90 24 0" begin="200ms" dur="300ms" fill="freeze" />
        </path>
        <path d="M 0, 24 A 24 24 0 0 0 24 0 A 24 24 0 0 0 0 24" transform="rotate(135 24 0)" class="petal-4">
            <animateTransform attributeName="transform" attributeType="XML" type="rotate" calcMode="spline" keySplines="0.0 0.0 0.2 1" values="135 24 0; 180 24 0" begin="200ms" dur="300ms" fill="freeze" />
        </path>
        <path d="M 0, 24 A 24 24 0 0 0 24 0 A 24 24 0 0 0 0 24" transform="rotate(135 24 0)" class="petal-1">
            <animateTransform attributeName="transform" attributeType="XML" type="rotate" calcMode="spline" keySplines="0.0 0.0 0.2 1" values="135 24 0; 45 24 0" begin="000ms" dur="500ms" fill="freeze" />
        </path>
        <path d="M 0, 24 A 24 24 0 0 0 24 0 A 24 24 0 0 0 0 24" transform="rotate(135 24 0)" class="petal-5">
            <animateTransform attributeName="transform" attributeType="XML" type="rotate" calcMode="spline" keySplines="0.0 0.0 0.2 1" values="135 24 0; 225 24 0" begin="000ms" dur="500ms" fill="freeze" />
        </path>
        <path d="M 0, 24 A 24 24 0 0 0 24 0 A 24 24 0 0 0 0 24" transform="rotate(135 24 0)" class="petal-3" />
    </g>
</svg>